# xmcd
#
# Track frame offsets:
#	150
#	12769
#	25768
#	30399
#	43075
#	50100
#	60098
#	68212
#	77410
#	89461
#	100066
#	104578
#	110984
#	123792
#	134052
#	144804
#	149925
#	163772
#	179907
#	192691
#	203145
#
# Disc length: 2809 seconds
#
# Revision: 1
# Processed by: cddbd v1.5.1PL0 Copyright (c) Steve Scherf et al.
# Submitted via: audiograbber 1.80
#
DISCID=380af715
DTITLE=Athens Boys Choir - Rhapsody in T
DYEAR=1900
DGENRE=
TTITLE0=pecs of steel
TTITLE1=promises like rain
TTITLE2=get in rocket's pocket
TTITLE3=D.O.M.A. (discrimination obscures my america)
TTITLE4=red britches
TTITLE5=queers in kentucky
TTITLE6=footloose and fancy-free
TTITLE7=speculum to scrotum
TTITLE8=white face, a black race
TTITLE9=knife fight this queer kyke
TTITLE10=biological
TTITLE11=marathon man
TTITLE12=taken in like oxygen
TTITLE13=pendulum swing
TTITLE14=dick not jane
TTITLE15=cowboy coitus
TTITLE16=queer revolution
TTITLE17=ode to the lone jew of georgia
TTITLE18=thanks to the government
TTITLE19=technolgy rulz
TTITLE20=(untitled)
EXTD=
EXTT0=
EXTT1=
EXTT2=
EXTT3=
EXTT4=
EXTT5=
EXTT6=
EXTT7=
EXTT8=
EXTT9=
EXTT10=
EXTT11=
EXTT12=
EXTT13=
EXTT14=
EXTT15=
EXTT16=
EXTT17=
EXTT18=
EXTT19=
EXTT20=
PLAYORDER=
